<svg width="32" height="32" viewBox="0 0 32 32" fill="none" xmlns="http://www.w3.org/2000/svg">
<g clip-path="url(#clip0_225_1047)">
<path d="M16 11.944V10.8893C16 9.8 16.6733 9.20933 17.348 8.756C18.0067 8.312 18.6667 7.73333 18.6667 6.66667C18.6667 5.19333 17.4733 4 16 4C14.5267 4 13.3333 5.19333 13.3333 6.66667" stroke="#323232" stroke-width="1.5" stroke-linecap="round" stroke-linejoin="round"/>
<path d="M21.268 28H10.732C9.224 28 8 26.776 8 25.268V20.0333C8 19.2786 8.612 18.6666 9.36667 18.6666H22.6347C23.388 18.6666 24 19.2786 24 20.0333V25.268C24 26.776 22.776 28 21.268 28Z" stroke="#323232" stroke-width="1.5" stroke-linecap="round" stroke-linejoin="round"/>
<path d="M24 20.5573H24.9013C26.6133 20.5573 28 19.1693 28 17.4573C28 16.1226 27.1467 14.9386 25.88 14.5173L20.216 12.6293C17.4787 11.7173 14.52 11.7173 11.7827 12.6293L6.11867 14.5173C4.85333 14.9386 4 16.1226 4 17.4706V17.536C4 19.2066 5.35467 20.5613 7.02533 20.5613H8" stroke="#323232" stroke-width="1.5" stroke-linecap="round" stroke-linejoin="round"/>
</g>
<defs>
<clipPath id="clip0_225_1047">
<rect width="32" height="32" fill="white"/>
</clipPath>
</defs>
</svg>
