<svg width="24" height="24" viewBox="0 0 24 24" fill="none" xmlns="http://www.w3.org/2000/svg">
<g clip-path="url(#clip0_242_1104)">
<path d="M14.105 17.082C13.416 17.367 12.702 17.5 12 17.5C8.963 17.5 6.5 15.037 6.5 12C6.5 8.963 8.963 6.5 12 6.5C15.037 6.5 17.5 8.963 17.5 12V12.916C17.5 13.865 16.73 14.634 15.782 14.634C14.834 14.634 14.064 13.864 14.064 12.916V12M14.064 12C14.064 10.86 13.141 9.938 12.002 9.938C10.862 9.938 9.94 10.861 9.94 12C9.94 13.139 10.863 14.062 12.002 14.062C13.141 14.062 14.064 13.14 14.064 12Z" stroke="black" stroke-width="1.5" stroke-linecap="round" stroke-linejoin="round"/>
<path d="M19.0711 4.92893C22.9763 8.83417 22.9763 15.1658 19.0711 19.071C15.1659 22.9763 8.8342 22.9763 4.929 19.071C1.02376 15.1658 1.02376 8.83413 4.929 4.92893C8.83424 1.02369 15.1659 1.02369 19.0711 4.92893Z" stroke="black" stroke-width="1.5" stroke-linecap="round" stroke-linejoin="round"/>
</g>
<defs>
<clipPath id="clip0_242_1104">
<rect width="24" height="24" fill="white"/>
</clipPath>
</defs>
</svg>
