<svg width="32" height="32" viewBox="0 0 32 32" fill="none" xmlns="http://www.w3.org/2000/svg">
<g clip-path="url(#clip0_221_1002)">
<path d="M14 10.6666V17.3333" stroke="#323232" stroke-width="1.5" stroke-linecap="round" stroke-linejoin="round"/>
<path d="M14 10.6666H17.1167C17.7046 10.6666 18.2684 10.9002 18.6841 11.3159C19.0998 11.7316 19.3333 12.2954 19.3333 12.8833C19.3333 13.4712 19.0998 14.035 18.6841 14.4507C18.2684 14.8664 17.7046 15.1 17.1167 15.1H14V10.6666Z" stroke="#323232" stroke-width="1.5" stroke-linecap="round" stroke-linejoin="round"/>
<path d="M10.6666 22.6666H21.3333" stroke="#323232" stroke-width="1.5" stroke-linecap="round" stroke-linejoin="round"/>
<path d="M24 4H8.00004C6.52728 4 5.33337 5.19391 5.33337 6.66667V25.3333C5.33337 26.8061 6.52728 28 8.00004 28H24C25.4728 28 26.6667 26.8061 26.6667 25.3333V6.66667C26.6667 5.19391 25.4728 4 24 4Z" stroke="#323232" stroke-width="1.5" stroke-linecap="round" stroke-linejoin="round"/>
</g>
<defs>
<clipPath id="clip0_221_1002">
<rect width="32" height="32" fill="white"/>
</clipPath>
</defs>
</svg>
