<svg width="32" height="32" viewBox="0 0 32 32" fill="none" xmlns="http://www.w3.org/2000/svg">
<g clip-path="url(#clip0_225_1062)">
<path d="M12 10H4" stroke="#323232" stroke-width="1.5" stroke-linecap="round" stroke-linejoin="round"/>
<path d="M8.09879 28V16" stroke="#323232" stroke-width="1.5" stroke-linecap="round" stroke-linejoin="round"/>
<path d="M8 10V4" stroke="#323232" stroke-width="1.5" stroke-linecap="round" stroke-linejoin="round"/>
<path d="M28 28C24.8174 28 21.7652 26.7357 19.5147 24.4853C17.2643 22.2348 16 19.1826 16 16C16 12.8174 17.2643 9.76516 19.5147 7.51472C21.7652 5.26428 24.8174 4 28 4" stroke="#323232" stroke-width="1.5" stroke-linecap="round" stroke-linejoin="round"/>
<path d="M28 22.6667C26.2319 22.6667 24.5362 21.9643 23.286 20.7141C22.0357 19.4638 21.3333 17.7682 21.3333 16C21.3333 14.2319 22.0357 12.5362 23.286 11.286C24.5362 10.0358 26.2319 9.33337 28 9.33337" stroke="#323232" stroke-width="1.5" stroke-linecap="round" stroke-linejoin="round"/>
<path d="M12 4V12C12 13.0609 11.5786 14.0783 10.8284 14.8284C10.0783 15.5786 9.06087 16 8 16C6.93913 16 5.92172 15.5786 5.17157 14.8284C4.42143 14.0783 4 13.0609 4 12V4" stroke="#323232" stroke-width="1.5" stroke-linecap="round" stroke-linejoin="round"/>
</g>
<defs>
<clipPath id="clip0_225_1062">
<rect width="32" height="32" fill="white"/>
</clipPath>
</defs>
</svg>
