<svg width="24" height="24" viewBox="0 0 24 24" fill="none" xmlns="http://www.w3.org/2000/svg">
<g clip-path="url(#clip0_242_1079)">
<path d="M9.845 15.4908L9.033 12.8168L6.707 12.0908C6.55176 12.0432 6.46451 11.8788 6.51211 11.7236C6.53874 11.6367 6.60404 11.567 6.689 11.5348L15.54 8.12083C15.7687 8.03389 16.0246 8.14881 16.1115 8.37751C16.141 8.45509 16.1481 8.5394 16.132 8.62083L14.645 15.6288C14.5796 15.9401 14.2741 16.1394 13.9628 16.074C13.8815 16.0569 13.8048 16.0224 13.738 15.9728L11.626 14.4128L10.381 15.6248C10.2523 15.7499 10.0465 15.7469 9.92143 15.6182C9.88646 15.5822 9.8603 15.5386 9.845 15.4908Z" stroke="black" stroke-width="1.5" stroke-linecap="round" stroke-linejoin="round"/>
<path d="M12 21C16.9706 21 21 16.9706 21 12C21 7.02944 16.9706 3 12 3C7.02944 3 3 7.02944 3 12C3 16.9706 7.02944 21 12 21Z" stroke="black" stroke-width="1.5" stroke-linecap="round" stroke-linejoin="round"/>
</g>
<defs>
<clipPath id="clip0_242_1079">
<rect width="24" height="24" fill="white"/>
</clipPath>
</defs>
</svg>
