<svg width="32" height="32" viewBox="0 0 32 32" fill="none" xmlns="http://www.w3.org/2000/svg">
<g clip-path="url(#clip0_221_1026)">
<path d="M16 12C17.8409 12 19.3333 10.5077 19.3333 8.66671C19.3333 6.82576 17.8409 5.33337 16 5.33337C14.159 5.33337 12.6666 6.82576 12.6666 8.66671C12.6666 10.5077 14.159 12 16 12Z" stroke="#323232" stroke-width="1.5" stroke-linecap="round" stroke-linejoin="round"/>
<path d="M21.9303 17.3334H10.0697C9.663 17.3334 9.33331 17.6631 9.33331 18.0697V21.9303C9.33331 22.337 9.663 22.6667 10.0697 22.6667H21.9303C22.337 22.6667 22.6666 22.337 22.6666 21.9303V18.0697C22.6666 17.6631 22.337 17.3334 21.9303 17.3334Z" stroke="#323232" stroke-width="1.5" stroke-linecap="round" stroke-linejoin="round"/>
<path d="M25.9303 22.6666H6.06969C5.663 22.6666 5.33331 22.9963 5.33331 23.403V27.2636C5.33331 27.6703 5.663 28 6.06969 28H25.9303C26.337 28 26.6666 27.6703 26.6666 27.2636V23.403C26.6666 22.9963 26.337 22.6666 25.9303 22.6666Z" stroke="#323232" stroke-width="1.5" stroke-linecap="round" stroke-linejoin="round"/>
<path d="M16 4V5.33333" stroke="#323232" stroke-width="1.5" stroke-linecap="round" stroke-linejoin="round"/>
<path d="M19.9303 12H12.0697C11.663 12 11.3333 12.3297 11.3333 12.7364V16.597C11.3333 17.0036 11.663 17.3333 12.0697 17.3333H19.9303C20.337 17.3333 20.6666 17.0036 20.6666 16.597V12.7364C20.6666 12.3297 20.337 12 19.9303 12Z" stroke="#323232" stroke-width="1.5" stroke-linecap="round" stroke-linejoin="round"/>
</g>
<defs>
<clipPath id="clip0_221_1026">
<rect width="32" height="32" fill="white"/>
</clipPath>
</defs>
</svg>
