<svg width="32" height="32" viewBox="0 0 32 32" fill="none" xmlns="http://www.w3.org/2000/svg">
<g clip-path="url(#clip0_417_20)">
<path d="M23.7319 6.74928L25.3333 8.34928L27.9986 5.68262" stroke="#323232" stroke-width="1.5" stroke-linecap="round" stroke-linejoin="round"/>
<path d="M16 16C17.841 16 19.3333 14.5077 19.3333 12.6667C19.3333 10.8258 17.841 9.33337 16 9.33337C14.1591 9.33337 12.6667 10.8258 12.6667 12.6667C12.6667 14.5077 14.1591 16 16 16Z" stroke="#323232" stroke-width="1.5" stroke-linecap="round" stroke-linejoin="round"/>
<path d="M10 21.3334C10.259 20.7392 10.6857 20.2336 11.2277 19.8783C11.7698 19.5231 12.4038 19.3337 13.0519 19.3334H18.9481C19.5962 19.3337 20.2302 19.5231 20.7723 19.8783C21.3144 20.2336 21.741 20.7392 22 21.3334" stroke="#323232" stroke-width="1.5" stroke-linecap="round" stroke-linejoin="round"/>
<path d="M27.4427 12.4707C27.8067 13.6119 27.9947 14.8021 28 16C28 18.3734 27.2962 20.6935 25.9776 22.6668C24.6591 24.6402 22.7849 26.1783 20.5922 27.0866C18.3995 27.9948 15.9867 28.2324 13.6589 27.7694C11.3311 27.3064 9.19295 26.1635 7.51472 24.4853C5.83649 22.8071 4.6936 20.6689 4.23058 18.3411C3.76755 16.0133 4.00519 13.6005 4.91345 11.4078C5.8217 9.21509 7.35977 7.34094 9.33316 6.02236C11.3065 4.70379 13.6266 4 16 4C17.1979 4.00532 18.3881 4.19326 19.5293 4.55733" stroke="#323232" stroke-width="1.5" stroke-linecap="round" stroke-linejoin="round"/>
</g>
<defs>
<clipPath id="clip0_417_20">
<rect width="32" height="32" fill="white"/>
</clipPath>
</defs>
</svg>
